<svg width="20" height="20" viewBox="0 0 20 20" fill="none" xmlns="http://www.w3.org/2000/svg">
    <path
        d="M15.7895 2.63158H15.5264V0.789474C15.5264 0.353474 15.1729 0 14.7369 0C14.3009 0 13.9474 0.353474 13.9474 0.789474V2.63158H12.3685V0.789474C12.3685 0.353474 12.015 0 11.579 0C11.143 0 10.7895 0.353474 10.7895 0.789474V2.63158H9.21056V0.789474C9.21056 0.353474 8.85709 0 8.42109 0C7.98509 0 7.63162 0.353474 7.63162 0.789474V2.63158H6.05267V0.789474C6.05267 0.353474 5.6992 0 5.2632 0C4.8272 0 4.47372 0.353474 4.47372 0.789474V2.63158H4.21056C3.48388 2.63158 2.89478 3.22068 2.89478 3.94737V18.6842C2.89478 19.4109 3.48388 20 4.21056 20H15.7895C16.5162 20 17.1053 19.4109 17.1053 18.6842V3.94737C17.1053 3.22068 16.5162 2.63158 15.7895 2.63158ZM4.47372 12.1053V10.5263H15.5264V12.1053H4.47372ZM4.47372 13.6842H12.3685V15.2632H4.47372V13.6842ZM15.5264 8.94737H4.47372V7.36842H15.5264V8.94737Z"
        fill="black" />
</svg>
